:SAMPLES-PER-SECOND 30
:FULLY-SPECIFIED
:DEGREES
336
root  34.5197 38.9203 -14.7693 -3.44116 -16.5784 5.11778
RightUpLeg  -6.41443 -34.6271 -24.9835
RightLeg  21.6018 -16.1712 -7.11307
RightFoot  -1.97638 -0.956219 11.5965
RightToes  0.000482159 0.542163 -0.142577
Spine  23.2021 0.0489375 -5.56816
Spine1  7.77067 -1.55594 1.42158
HEad  -21.4515 -29.6219 19.2674
LeftShoulder1  9.41568 -16.8857 -39.9193
LeftArm  -9.80057 17.3498 -17.306
LeftForeArm  48.1385 -78.107 -66.3968
LeftHand  -0.25398 0.0180481 5.50724
RightShoulder  5.88841 9.75911 38.3399
RightArm  -11.5978 -22.7124 25.1852
RightForeArm  50.6349 77.3874 105.374
RightHand  0.452198 -12.8332 -8.16173
LeftUpLeg  -2.86381 16.514 15.2327
LeftLeg  8.20366 58.1717 -1.51608
LeftFoot  10.7696 0.309237 -1.95704
LeftToes  1.06246e-005 4.65854e-005 -8.18503e-006
337
root  33.4208 38.9402 -14.8444 -2.98758 -21.4859 3.83449
RightUpLeg  -8.70596 -37.3683 -20.9897
RightLeg  21.6996 -9.6096 -4.38538
RightFoot  -1.21687 -0.96738 10.7686
RightToes  0.000482159 0.542163 -0.142577
Spine  21.5179 -0.925145 -3.5572
Spine1  7.97721 -2.2418 1.74107
HEad  -20.956 -27.4486 17.7211
LeftShoulder1  9.20017 -16.4996 -39.7466
LeftArm  -11.098 18.6204 -17.4875
LeftForeArm  56.0134 -78.6652 -73.9781
LeftHand  -0.25398 0.0180481 5.50724
RightShoulder  5.96723 9.93704 38.3392
RightArm  -10.9331 -22.8167 25.1509
RightForeArm  52.3196 77.1777 108.148
RightHand  0.467367 -12.1041 -9.19913
LeftUpLeg  -1.68818 16.8573 18.2094
LeftLeg  8.04942 52.9136 -0.72243
LeftFoot  8.25274 0.775705 -4.7852
LeftToes  1.06246e-005 4.65854e-005 -8.18503e-006
338
root  32.3273 39.0548 -14.9532 -2.8884 -26.0698 3.31909
RightUpLeg  -10.893 -36.8515 -17.3385
RightLeg  22.6492 -6.45933 -3.17269
RightFoot  -2.58857 -0.597895 7.53951
RightToes  0.000482159 0.542163 -0.142577
Spine  20.4422 -1.44172 -2.91393
Spine1  8.174 -3.02756 3.26697
HEad  -20.4515 -25.0953 16.3229
LeftShoulder1  9.07926 -16.1814 -39.8713
LeftArm  -11.9554 19.4011 -17.4998
LeftForeArm  62.6435 -78.9565 -80.5232
LeftHand  -0.25398 0.0180481 5.50724
RightShoulder  5.8705 9.8883 37.7983
RightArm  -10.6374 -22.6644 25.6885
RightForeArm  53.9335 76.9555 110.701
RightHand  0.507465 -11.8922 -10.1583
LeftUpLeg  -0.949847 15.2389 18.8894
LeftLeg  6.47545 41.7152 -0.542688
LeftFoot  3.35627 0.544575 -4.25859
LeftToes  1.06246e-005 4.65854e-005 -8.18503e-006
339
root  31.2549 39.2014 -15.0466 -3.88002 -29.8786 3.45955
RightUpLeg  -10.815 -33.3195 -15.4362
RightLeg  23.2693 -6.64015 -3.33918
RightFoot  -4.68186 -0.369642 5.84896
RightToes  0.000482159 0.542163 -0.142577
Spine  20.4175 -1.79034 -2.77835
Spine1  8.35292 -3.76516 4.91375
HEad  -20.1323 -23.1987 15.4238
LeftShoulder1  9.08132 -16.0547 -40.1647
LeftArm  -11.8593 19.0318 -17.1072
LeftForeArm  64.8272 -79.0167 -82.6938
LeftHand  -0.25398 0.0180481 5.50724
RightShoulder  5.72058 9.69449 37.3248
RightArm  -10.9584 -22.8882 26.241
RightForeArm  56.9505 76.5975 114.359
RightHand  0.55731 -11.7922 -11.1663
LeftUpLeg  -0.351644 12.6904 17.8544
LeftLeg  6.12564 27.2935 0.491358
LeftFoot  -1.65938 0.161509 -1.84538
LeftToes  1.06246e-005 4.65854e-005 -8.18503e-006
340
root  30.214 39.3154 -15.047 -5.41754 -32.9093 3.38107
RightUpLeg  -8.99629 -29.5296 -14.3059
RightLeg  23.4775 -7.3484 -3.70189
RightFoot  -6.29145 -0.292185 5.65551
RightToes  0.000482159 0.542163 -0.142577
Spine  20.9463 -2.43516 -1.5951
Spine1  8.62736 -4.29182 5.20606
HEad  -19.8481 -22.0352 14.7378
LeftShoulder1  9.15206 -16.0746 -40.4616
LeftArm  -10.9191 17.4317 -16.51
LeftForeArm  61.9072 -78.931 -79.4122
LeftHand  -0.25398 0.0180481 5.50724
RightShoulder  5.66681 9.61484 37.1824
RightArm  -11.7738 -23.6378 26.3896
RightForeArm  60.8062 76.0956 118.612
RightHand  0.589406 -11.728 -11.8262
LeftUpLeg  -0.394882 11.6134 16.6431
LeftLeg  8.85681 13.9725 1.52462
LeftFoot  -4.81803 0.123313 -1.74412
LeftToes  1.06246e-005 4.65854e-005 -8.18503e-006
341
root  29.226 39.4273 -14.9109 -6.41791 -35.6231 3.05194
RightUpLeg  -7.10247 -27.4446 -13.1422
RightLeg  23.1621 -6.7713 -3.39316
RightFoot  -7.43964 -0.228471 5.20196
RightToes  0.000482159 0.542163 -0.142577
Spine  20.6654 -3.2807 0.462762
Spine1  9.24533 -4.61952 4.60584
HEad  -19.1408 -21.4234 13.627
LeftShoulder1  9.2557 -16.1367 -40.8192
LeftArm  -9.83184 15.1788 -16.105
LeftForeArm  56.558 -78.6792 -73.1859
LeftHand  -0.25398 0.0180481 5.50724
RightShoulder  5.64011 9.65188 36.8676
RightArm  -12.6753 -24.6811 26.4365
RightForeArm  64.2755 75.529 122.52
RightHand  0.621158 -11.9579 -11.9785
LeftUpLeg  -1.4513 12.7895 15.2016
LeftLeg  13.3381 5.33904 1.31687
LeftFoot  -5.76301 0.23461 -4.04523
LeftToes  1.06246e-005 4.65854e-005 -8.18503e-006
342
root  28.2466 39.583 -14.6995 -6.94945 -38.6913 3.26447
RightUpLeg  -5.73145 -26.0717 -12.2811
RightLeg  22.2902 -5.52374 -2.68836
RightFoot  -8.50782 -0.167995 4.46178
RightToes  0.000482159 0.542163 -0.142577
Spine  19.4171 -3.70035 1.85462
Spine1  9.97446 -4.64778 4.07917
HEad  -17.7899 -20.9327 11.9487
LeftShoulder1  9.37815 -16.1776 -41.3115
LeftArm  -9.17529 13.1242 -16.03
LeftForeArm  52.6137 -78.3816 -68.0634
LeftHand  -0.25398 0.0180481 5.50724
RightShoulder  5.53341 9.64206 36.108
RightArm  -13.2583 -25.7326 26.5884
RightForeArm  66.4904 74.9591 125.735
RightHand  0.664777 -12.0822 -12.5053
LeftUpLeg  -3.07019 15.26 12.628
LeftLeg  17.5214 2.90241 1.38669
LeftFoot  -5.35394 0.331936 -5.73975
LeftToes  1.06246e-005 4.65854e-005 -8.18503e-006
343
root  27.2379 39.7732 -14.4671 -7.68312 -42.3561 3.91672
RightUpLeg  -4.05144 -23.5082 -11.7595
RightLeg  20.7296 -5.01129 -1.92641
RightFoot  -9.30551 -0.137306 4.18428
RightToes  0.000482159 0.542163 -0.142577
Spine  18.3867 -3.63472 2.51317
Spine1  10.3435 -4.31164 3.57288
HEad  -16.1099 -20.2669 10.2281
LeftShoulder1  9.46295 -16.1642 -41.7457
LeftArm  -8.97482 11.8008 -16.209
LeftForeArm  51.6548 -78.2575 -65.9856
LeftHand  -0.25398 0.0180481 5.50724
RightShoulder  5.40787 9.58029 35.3646
RightArm  -13.469 -26.6827 26.5855
RightForeArm  67.4669 74.4013 128.374
RightHand  0.674099 -11.352 -14.1128
LeftUpLeg  -4.84951 16.9766 9.34397
LeftLeg  21.1213 5.19923 2.55211
LeftFoot  -4.93187 0.304718 -4.91702
LeftToes  1.06246e-005 4.65854e-005 -8.18503e-006
344
root  26.1922 39.9547 -14.1995 -8.6396 -46.148 4.28888
RightUpLeg  -1.53252 -19.5683 -11.2525
RightLeg  18.669 -5.62389 -0.981487
RightFoot  -9.74007 -0.124507 4.17401
RightToes  0.000482159 0.542163 -0.142577
Spine  18.0582 -3.60404 3.36488
Spine1  10.4088 -3.85617 2.51965
HEad  -14.5114 -19.3806 8.86307
LeftShoulder1  9.45713 -16.0739 -41.9254
LeftArm  -8.98743 11.1659 -16.491
LeftForeArm  52.3717 -78.2901 -65.9599
LeftHand  -0.25398 0.0180481 5.50724
RightShoulder  5.36906 9.58617 35.0549
RightArm  -13.5462 -27.6053 26.3494
RightForeArm  68.241 73.8374 130.744
RightHand  0.618313 -10.2116 -15.8424
LeftUpLeg  -6.52723 18.8042 6.23501
LeftLeg  23.7898 6.97454 3.67005
LeftFoot  -4.65826 0.223774 -3.35217
LeftToes  1.06246e-005 4.65854e-005 -8.18503e-006
345
root  25.1109 40.1015 -13.8814 -9.3427 -49.586 4.2827
RightUpLeg  1.21696 -16.2656 -10.5604
RightLeg  16.5412 -5.86487 0.0299114
RightFoot  -10.1167 -0.109921 3.84445
RightToes  0.000482159 0.542163 -0.142577
Spine  17.7102 -3.81098 4.46957
Spine1  10.5706 -3.57294 1.16903
HEad  -13.0672 -18.2706 7.66842
LeftShoulder1  9.40042 -15.9137 -42.0259
LeftArm  -9.10242 10.9032 -16.6206
LeftForeArm  53.0679 -78.3383 -66.3268
LeftHand  -0.25398 0.0180481 5.50724
RightShoulder  5.39689 9.67 35.0057
RightArm  -13.7246 -28.5839 26.2609
RightForeArm  69.7485 73.2392 133.072
RightHand  0.601801 -9.89337 -16.4908
LeftUpLeg  -8.06153 20.6691 3.33359
LeftLeg  24.1578 6.31742 3.42547
LeftFoot  -4.26177 0.21346 -3.02929
LeftToes  1.06246e-005 4.65854e-005 -8.18503e-006
